<svg xmlns="http://www.w3.org/2000/svg" width="18.449" height="18.449" viewBox="0 0 18.449 18.449">
  <path id="Icon_awesome-phone" data-name="Icon awesome-phone" d="M17.778.886,14.03.021a.87.87,0,0,0-.991.5L11.31,4.558a.863.863,0,0,0,.249,1.009l2.184,1.787a13.354,13.354,0,0,1-6.385,6.385L5.57,11.555a.864.864,0,0,0-1.009-.249L.526,13.036a.875.875,0,0,0-.5.994l.865,3.747a.864.864,0,0,0,.843.67A16.717,16.717,0,0,0,18.448,1.729.864.864,0,0,0,17.778.886Z" transform="translate(18.448 0.001) rotate(90)" fill="#b3c8e6"/>
</svg>
